<svg width="18" height="19" viewBox="0 0 18 19" fill="none" xmlns="http://www.w3.org/2000/svg">
<path d="M9.20578 7.24359C10.7918 7.24359 12.0776 5.95784 12.0776 4.37179C12.0776 2.78575 10.7918 1.5 9.20578 1.5C7.61973 1.5 6.33398 2.78575 6.33398 4.37179C6.33398 5.95784 7.61973 7.24359 9.20578 7.24359Z" stroke="#696868" stroke-width="1.64103" stroke-linecap="round" stroke-linejoin="round"/>
<path d="M1 16.6793C1 13.0539 4.30626 10.1152 8.38462 10.1152" stroke="#696868" stroke-width="1.64103" stroke-linecap="round" stroke-linejoin="round"/>
<path d="M13.3075 17.4998C15.3467 17.4998 16.9998 15.8467 16.9998 13.8075C16.9998 11.7683 15.3467 10.1152 13.3075 10.1152C11.2683 10.1152 9.61523 11.7683 9.61523 13.8075C9.61523 15.8467 11.2683 17.4998 13.3075 17.4998Z" stroke="#696868" stroke-width="1.64103"/>
<path d="M12.8975 12.5762V14.2172H14.5385" stroke="#696868" stroke-width="1.64103" stroke-linecap="round" stroke-linejoin="round"/>
</svg>
