<svg width="25" height="24" viewBox="0 0 25 24" fill="none" xmlns="http://www.w3.org/2000/svg">
<path d="M23.8559 21.4408C23.1327 20.7334 22.4996 19.9224 21.9735 19.0297C21.3992 17.7974 21.055 16.4517 20.961 15.0715V11.0063C20.966 8.83849 20.2493 6.74327 18.9457 5.11433C17.642 3.48539 15.8411 2.43486 13.8813 2.16012V1.09858C13.8813 0.807216 13.7758 0.527789 13.588 0.321766C13.4003 0.115743 13.1456 0 12.8801 0C12.6145 0 12.3599 0.115743 12.1721 0.321766C11.9843 0.527789 11.8789 0.807216 11.8789 1.09858V2.17658C9.93662 2.47112 8.15747 3.528 6.87093 5.15147C5.5844 6.77494 4.87766 8.85498 4.88161 11.0063V15.0715C4.78768 16.4517 4.44346 17.7974 3.86914 19.0297C3.35232 19.9203 2.72933 20.7312 2.01671 21.4408C1.93671 21.5179 1.8726 21.6128 1.82863 21.7192C1.78466 21.8256 1.76185 21.9411 1.76172 22.0579V23.1771C1.76172 23.3953 1.84073 23.6047 1.98138 23.759C2.12203 23.9133 2.31279 24 2.51169 24H23.361C23.5599 24 23.7506 23.9133 23.8913 23.759C24.0319 23.6047 24.1109 23.3953 24.1109 23.1771V22.0579C24.1108 21.9411 24.088 21.8256 24.044 21.7192C24.0001 21.6128 23.9359 21.5179 23.8559 21.4408ZM3.32166 22.3542C4.01945 21.6146 4.63382 20.7857 5.1516 19.8855C5.87503 18.3972 6.29713 16.7552 6.38905 15.0715V11.0063C6.35931 10.0419 6.50674 9.08081 6.82257 8.18022C7.1384 7.27962 7.61617 6.45797 8.22743 5.7642C8.83868 5.07042 9.57092 4.5187 10.3805 4.1419C11.1902 3.7651 12.0606 3.57092 12.9401 3.57092C13.8195 3.57092 14.69 3.7651 15.4996 4.1419C16.3092 4.5187 17.0415 5.07042 17.6527 5.7642C18.264 6.45797 18.7417 7.27962 19.0576 8.18022C19.3734 9.08081 19.5208 10.0419 19.4911 11.0063V15.0715C19.583 16.7552 20.0051 18.3972 20.7285 19.8855C21.2463 20.7857 21.8607 21.6146 22.5585 22.3542H3.32166Z" fill="black" fill-opacity="0.4"/>
<circle cx="4.5" cy="7.5" r="4.5" fill="#416C11"/>
<path d="M3.37642 9.06392C3.1321 9.06297 2.92188 9.00284 2.74574 8.88352C2.57055 8.7642 2.43561 8.59138 2.34091 8.36506C2.24716 8.13873 2.20076 7.86648 2.2017 7.5483C2.2017 7.23106 2.24858 6.9607 2.34233 6.73722C2.43703 6.51373 2.57197 6.34375 2.74716 6.22727C2.9233 6.10985 3.13305 6.05114 3.37642 6.05114C3.61979 6.05114 3.82907 6.10985 4.00426 6.22727C4.1804 6.3447 4.31581 6.51515 4.41051 6.73864C4.50521 6.96117 4.55208 7.23106 4.55114 7.5483C4.55114 7.86742 4.50379 8.14015 4.40909 8.36648C4.31534 8.5928 4.18087 8.76562 4.00568 8.88494C3.83049 9.00426 3.62074 9.06392 3.37642 9.06392ZM3.37642 8.55398C3.54309 8.55398 3.67614 8.47017 3.77557 8.30256C3.875 8.13494 3.92424 7.88352 3.9233 7.5483C3.9233 7.32765 3.90057 7.14394 3.85511 6.99716C3.81061 6.85038 3.74716 6.74006 3.66477 6.66619C3.58333 6.59233 3.48722 6.5554 3.37642 6.5554C3.2107 6.5554 3.07813 6.63826 2.97869 6.80398C2.87926 6.9697 2.82907 7.2178 2.82812 7.5483C2.82812 7.77178 2.85038 7.95833 2.89489 8.10795C2.94034 8.25663 3.00426 8.36837 3.08665 8.44318C3.16903 8.51705 3.26562 8.55398 3.37642 8.55398ZM6.06499 9.03977C5.85286 9.03977 5.66394 9.00331 5.49822 8.9304C5.33345 8.85653 5.20324 8.75521 5.1076 8.62642C5.0129 8.49669 4.96413 8.34706 4.96129 8.17756H5.58061C5.5844 8.24858 5.6076 8.31108 5.65021 8.36506C5.69377 8.41809 5.75154 8.45928 5.82351 8.48864C5.89548 8.51799 5.97644 8.53267 6.06641 8.53267C6.16016 8.53267 6.24302 8.5161 6.31499 8.48295C6.38696 8.44981 6.4433 8.40388 6.48402 8.34517C6.52474 8.28646 6.5451 8.21875 6.5451 8.14205C6.5451 8.06439 6.52332 7.99574 6.47976 7.93608C6.43714 7.87547 6.37559 7.82812 6.2951 7.79403C6.21555 7.75994 6.12086 7.7429 6.01101 7.7429H5.7397V7.29119H6.01101C6.10381 7.29119 6.18572 7.27509 6.25675 7.2429C6.32872 7.2107 6.38459 7.16619 6.42436 7.10938C6.46413 7.05161 6.48402 6.98438 6.48402 6.90767C6.48402 6.83475 6.4665 6.77083 6.43146 6.71591C6.39737 6.66004 6.34908 6.61648 6.28658 6.58523C6.22502 6.55398 6.15305 6.53835 6.07067 6.53835C5.98733 6.53835 5.9111 6.5535 5.84197 6.58381C5.77285 6.61316 5.71745 6.6553 5.67578 6.71023C5.63411 6.76515 5.61186 6.82955 5.60902 6.90341H5.01953C5.02237 6.7358 5.07019 6.58807 5.163 6.46023C5.2558 6.33239 5.3808 6.23248 5.538 6.16051C5.69614 6.08759 5.87464 6.05114 6.07351 6.05114C6.27427 6.05114 6.44993 6.08759 6.6005 6.16051C6.75107 6.23343 6.86802 6.33191 6.95135 6.45597C7.03563 6.57907 7.0773 6.71733 7.07635 6.87074C7.0773 7.03362 7.02663 7.16951 6.92436 7.27841C6.82304 7.38731 6.69093 7.45644 6.52805 7.4858V7.50852C6.74207 7.53598 6.90495 7.61032 7.01669 7.73153C7.12938 7.8518 7.18525 8.00237 7.1843 8.18324C7.18525 8.34896 7.13743 8.49621 7.04084 8.625C6.94519 8.75379 6.81309 8.85511 6.64453 8.92898C6.47597 9.00284 6.28279 9.03977 6.06499 9.03977Z" fill="white"/>
</svg>
