<svg width="22" height="17" viewBox="0 0 22 17" fill="none" xmlns="http://www.w3.org/2000/svg">
<path d="M0 3.83333C0 2.94928 0.351189 2.10143 0.976311 1.47631C1.60143 0.851189 2.44928 0.5 3.33333 0.5H18C18.8841 0.5 19.7319 0.851189 20.357 1.47631C20.9821 2.10143 21.3333 2.94928 21.3333 3.83333V13.1667C21.3333 14.0507 20.9821 14.8986 20.357 15.5237C19.7319 16.1488 18.8841 16.5 18 16.5H3.33333C2.44928 16.5 1.60143 16.1488 0.976311 15.5237C0.351189 14.8986 0 14.0507 0 13.1667V3.83333ZM3.33333 1.83333C2.8029 1.83333 2.29419 2.04405 1.91912 2.41912C1.54405 2.79419 1.33333 3.3029 1.33333 3.83333V5.56667H20V3.83333C20 3.3029 19.7893 2.79419 19.4142 2.41912C19.0391 2.04405 18.5304 1.83333 18 1.83333H3.33333ZM1.33333 13.1667C1.33333 13.6971 1.54405 14.2058 1.91912 14.5809C2.29419 14.956 2.8029 15.1667 3.33333 15.1667H18C18.5304 15.1667 19.0391 14.956 19.4142 14.5809C19.7893 14.2058 20 13.6971 20 13.1667V6.9H1.33333V13.1667ZM14.5333 11.4333C14.3565 11.4333 14.187 11.5036 14.0619 11.6286C13.9369 11.7536 13.8667 11.9232 13.8667 12.1C13.8667 12.2768 13.9369 12.4464 14.0619 12.5714C14.187 12.6964 14.3565 12.7667 14.5333 12.7667H17.4667C17.6435 12.7667 17.813 12.6964 17.9381 12.5714C18.0631 12.4464 18.1333 12.2768 18.1333 12.1C18.1333 11.9232 18.0631 11.7536 17.9381 11.6286C17.813 11.5036 17.6435 11.4333 17.4667 11.4333H14.5333Z" fill="#696868"/>
</svg>
