<svg width="18" height="17" viewBox="0 0 18 17" fill="none" xmlns="http://www.w3.org/2000/svg">
<path d="M16 0.5H1.33336C0.979735 0.5 0.640596 0.640476 0.390547 0.890524C0.140499 1.14057 2.32161e-05 1.47971 2.32161e-05 1.83333V15.1667C-0.00148333 15.4208 0.0703617 15.67 0.20694 15.8843C0.343519 16.0986 0.539031 16.269 0.770023 16.375C0.946512 16.457 1.13874 16.4997 1.33336 16.5C1.64635 16.4992 1.94894 16.3876 2.18752 16.185L2.19502 16.1792L4.91669 13.8333H16C16.3536 13.8333 16.6928 13.6929 16.9428 13.4428C17.1929 13.1928 17.3334 12.8536 17.3334 12.5V1.83333C17.3334 1.47971 17.1929 1.14057 16.9428 0.890524C16.6928 0.640476 16.3536 0.5 16 0.5ZM16 12.5H4.66669C4.50661 12.5001 4.35191 12.5578 4.23086 12.6625L1.33336 15.1667V1.83333H16V12.5ZM5.33336 5.83333C5.33336 5.65652 5.40359 5.48695 5.52862 5.36193C5.65364 5.2369 5.82321 5.16667 6.00002 5.16667H11.3334C11.5102 5.16667 11.6797 5.2369 11.8048 5.36193C11.9298 5.48695 12 5.65652 12 5.83333C12 6.01014 11.9298 6.17971 11.8048 6.30474C11.6797 6.42976 11.5102 6.5 11.3334 6.5H6.00002C5.82321 6.5 5.65364 6.42976 5.52862 6.30474C5.40359 6.17971 5.33336 6.01014 5.33336 5.83333ZM5.33336 8.5C5.33336 8.32319 5.40359 8.15362 5.52862 8.02859C5.65364 7.90357 5.82321 7.83333 6.00002 7.83333H11.3334C11.5102 7.83333 11.6797 7.90357 11.8048 8.02859C11.9298 8.15362 12 8.32319 12 8.5C12 8.67681 11.9298 8.84638 11.8048 8.97141C11.6797 9.09643 11.5102 9.16667 11.3334 9.16667H6.00002C5.82321 9.16667 5.65364 9.09643 5.52862 8.97141C5.40359 8.84638 5.33336 8.67681 5.33336 8.5Z" fill="#696868"/>
</svg>
