<svg width="16" height="17" viewBox="0 0 16 17" fill="none" xmlns="http://www.w3.org/2000/svg">
<path fill-rule="evenodd" clip-rule="evenodd" d="M9.99967 9.83301C10.8586 9.83306 11.6844 10.1647 12.3049 10.7588C12.9253 11.3529 13.2924 12.1635 13.3297 13.0217L13.333 13.1663V14.4997C13.3328 14.6696 13.2678 14.833 13.1511 14.9566C13.0345 15.0801 12.875 15.1545 12.7054 15.1645C12.5358 15.1744 12.3688 15.1192 12.2385 15.0102C12.1082 14.9011 12.0244 14.7464 12.0043 14.5777L11.9997 14.4997V13.1663C11.9997 12.6562 11.8048 12.1653 11.4548 11.7942C11.1048 11.423 10.6263 11.1996 10.117 11.1697L9.99967 11.1663H4.66634C4.1562 11.1663 3.66533 11.3612 3.29417 11.7112C2.923 12.0612 2.6996 12.5397 2.66967 13.049L2.66634 13.1663V14.4997C2.66615 14.6696 2.60109 14.833 2.48444 14.9566C2.3678 15.0801 2.20837 15.1545 2.03874 15.1645C1.86912 15.1744 1.70209 15.1192 1.57179 15.0102C1.44148 14.9011 1.35774 14.7464 1.33767 14.5777L1.33301 14.4997V13.1663C1.33306 12.3074 1.6647 11.4816 2.25878 10.8612C2.85286 10.2407 3.66351 9.87362 4.52167 9.83634L4.66634 9.83301H9.99967ZM13.9997 9.16634C14.1765 9.16634 14.3461 9.23658 14.4711 9.3616C14.5961 9.48663 14.6663 9.6562 14.6663 9.83301C14.6663 10.0098 14.5961 10.1794 14.4711 10.3044C14.3461 10.4294 14.1765 10.4997 13.9997 10.4997H13.333C13.1562 10.4997 12.9866 10.4294 12.8616 10.3044C12.7366 10.1794 12.6663 10.0098 12.6663 9.83301C12.6663 9.6562 12.7366 9.48663 12.8616 9.3616C12.9866 9.23658 13.1562 9.16634 13.333 9.16634H13.9997ZM7.33301 1.83301C8.21706 1.83301 9.06491 2.1842 9.69003 2.80932C10.3152 3.43444 10.6663 4.28229 10.6663 5.16634C10.6663 6.0504 10.3152 6.89824 9.69003 7.52336C9.06491 8.14849 8.21706 8.49967 7.33301 8.49967C6.44895 8.49967 5.60111 8.14849 4.97599 7.52336C4.35086 6.89824 3.99967 6.0504 3.99967 5.16634C3.99967 4.28229 4.35086 3.43444 4.97599 2.80932C5.60111 2.1842 6.44895 1.83301 7.33301 1.83301ZM13.9997 7.16634C14.1765 7.16634 14.3461 7.23658 14.4711 7.3616C14.5961 7.48663 14.6663 7.6562 14.6663 7.83301C14.6663 8.00982 14.5961 8.17939 14.4711 8.30441C14.3461 8.42944 14.1765 8.49967 13.9997 8.49967H12.6663C12.4895 8.49967 12.32 8.42944 12.1949 8.30441C12.0699 8.17939 11.9997 8.00982 11.9997 7.83301C11.9997 7.6562 12.0699 7.48663 12.1949 7.3616C12.32 7.23658 12.4895 7.16634 12.6663 7.16634H13.9997ZM7.33301 3.16634C7.07036 3.16634 6.81029 3.21807 6.56764 3.31858C6.32499 3.41909 6.10451 3.56641 5.91879 3.75213C5.73308 3.93784 5.58576 4.15832 5.48525 4.40097C5.38474 4.64363 5.33301 4.9037 5.33301 5.16634C5.33301 5.42899 5.38474 5.68906 5.48525 5.93171C5.58576 6.17436 5.73308 6.39484 5.91879 6.58055C6.10451 6.76627 6.32499 6.91359 6.56764 7.0141C6.81029 7.11461 7.07036 7.16634 7.33301 7.16634C7.86344 7.16634 8.37215 6.95563 8.74722 6.58055C9.12229 6.20548 9.33301 5.69677 9.33301 5.16634C9.33301 4.63591 9.12229 4.1272 8.74722 3.75213C8.37215 3.37705 7.86344 3.16634 7.33301 3.16634ZM13.9997 5.16634C14.1696 5.16653 14.333 5.23159 14.4566 5.34824C14.5801 5.46489 14.6545 5.62431 14.6645 5.79394C14.6744 5.96357 14.6192 6.13059 14.5102 6.2609C14.4011 6.3912 14.2464 6.47494 14.0777 6.49501L13.9997 6.49967H11.9997C11.8298 6.49949 11.6663 6.43442 11.5428 6.31778C11.4192 6.20113 11.3449 6.04171 11.3349 5.87208C11.3249 5.70245 11.3801 5.53542 11.4892 5.40512C11.5982 5.27482 11.7529 5.19108 11.9217 5.17101L11.9997 5.16634H13.9997Z" fill="#696868"/>
</svg>

