<svg width="67" height="63" viewBox="0 0 67 63" fill="none" xmlns="http://www.w3.org/2000/svg">
<path d="M33.5879 48.6955V60.1701M22.1133 60.1701H45.0626M54.2555 2.83008H12.9204C10.2894 2.83008 7.76606 3.87526 5.90562 5.7357C4.04518 7.59614 3 10.1194 3 12.7505V38.775C3 41.4061 4.04518 43.9294 5.90562 45.7898C7.76606 47.6503 10.2894 48.6955 12.9204 48.6955H54.2555C56.8865 48.6955 59.4098 47.6503 61.2703 45.7898C63.1307 43.9294 64.1759 41.4061 64.1759 38.775V12.7505C64.1759 10.1194 63.1307 7.59614 61.2703 5.7357C59.4098 3.87526 56.8865 2.83008 54.2555 2.83008Z" stroke="black" stroke-width="4.96021" stroke-linecap="round" stroke-linejoin="round"/>
<path d="M23.667 25.4901L29.2522 31.0753C29.4487 31.2737 29.6825 31.4311 29.9402 31.5386C30.1979 31.6461 30.4743 31.7014 30.7535 31.7014C31.0327 31.7014 31.3091 31.6461 31.5668 31.5386C31.8245 31.4311 32.0583 31.2737 32.2548 31.0753L43.5078 19.8223" stroke="black" stroke-width="4.96021" stroke-linecap="round" stroke-linejoin="round"/>
</svg>
