<svg width="71" height="63" viewBox="0 0 71 63" fill="none" xmlns="http://www.w3.org/2000/svg">
<path d="M21.24 52.1842C22.6089 52.1842 23.9644 51.9145 25.2292 51.3907C26.4939 50.8668 27.643 50.099 28.611 49.131M21.24 52.1842C18.4753 52.1842 15.8239 51.0859 13.869 49.131M21.24 52.1842V60M28.611 49.131C29.579 48.163 30.3468 47.0139 30.8707 45.7492C31.3945 44.4844 31.6642 43.1289 31.6642 41.76M28.611 49.131L34.1387 54.6587M31.6642 41.76C31.6642 40.3911 31.3945 39.0356 30.8707 37.7708C30.3468 36.5061 29.579 35.357 28.611 34.389M31.6642 41.76H39.48M28.611 34.389C27.643 33.421 26.4939 32.6532 25.2292 32.1293C23.9644 31.6055 22.6089 31.3358 21.24 31.3358M28.611 34.389L34.1387 28.8613M21.24 31.3358C18.4753 31.3358 15.8239 32.4341 13.869 34.389M21.24 31.3358V23.52M13.869 34.389C11.9141 36.3439 10.8158 38.9953 10.8158 41.76M13.869 34.389L8.34432 28.8613M10.8158 41.76C10.8158 44.5247 11.9141 47.1761 13.869 49.131M10.8158 41.76H3M13.869 49.131L8.34432 54.6587M19.5042 23.52H22.9789M32.9106 27.6331L35.3669 30.0894M39.48 40.0242V43.4958M35.3669 53.4306L32.9106 55.8869M22.9789 60H19.5042M9.57248 55.8869L7.11616 53.4306M3 43.4958V40.0242M7.11616 30.0894L9.57248 27.6331M68.5789 13.64L59.6504 6.496C56.8194 4.23339 53.3033 3.00059 49.6792 3H31.3389C30.2864 2.99907 29.2574 3.31051 28.382 3.89488C27.5067 4.47924 26.8245 5.31023 26.4218 6.28261C26.0191 7.25498 25.9141 8.32499 26.12 9.35712C26.3259 10.3892 26.8334 11.337 27.5784 12.0805C28.5756 13.0783 29.9282 13.6393 31.3389 13.64H45.0797" stroke="black" stroke-width="4.56" stroke-linecap="round" stroke-linejoin="round"/>
<path d="M68.0932 29.5997H57.4532C54.3 29.5997 51.2175 28.6656 48.5947 26.9154L42.5147 22.8631C41.9406 22.5155 41.4429 22.0552 41.0516 21.5099C40.6604 20.9647 40.3837 20.3458 40.2382 19.6906C40.0927 19.0355 40.0815 18.3576 40.2053 17.698C40.329 17.0384 40.5851 16.4107 40.9582 15.8529C41.6293 14.8453 42.6456 14.1176 43.8157 13.8069C44.9858 13.4962 46.2292 13.6238 47.3118 14.1657L55.2918 18.9597" stroke="black" stroke-width="4.56" stroke-linecap="round" stroke-linejoin="round"/>
</svg>
