<svg width="16" height="19" viewBox="0 0 16 19" fill="none" xmlns="http://www.w3.org/2000/svg">
<path d="M1 9.28461C1 7.92661 1 7.24761 1.274 6.65061C1.549 6.05361 2.064 5.61261 3.095 4.72861L4.095 3.87161C5.96 2.27461 6.89 1.47461 8 1.47461C9.11 1.47461 10.041 2.27361 11.905 3.87061L12.905 4.72761C13.935 5.61161 14.451 6.05261 14.725 6.64961C15 7.24661 15 7.92561 15 9.28361V13.5246C15 15.4106 15 16.3526 14.414 16.9386C13.828 17.5246 12.886 17.5246 11 17.5246H5C3.114 17.5246 2.172 17.5246 1.586 16.9386C1 16.3526 1 15.4106 1 13.5246V9.28461Z" stroke="#696868"/>
<path d="M10.5 17.5244V12.5244C10.5 12.2592 10.3946 12.0048 10.2071 11.8173C10.0196 11.6298 9.76522 11.5244 9.5 11.5244H6.5C6.23478 11.5244 5.98043 11.6298 5.79289 11.8173C5.60536 12.0048 5.5 12.2592 5.5 12.5244V17.5244" stroke="#696868" stroke-linecap="round" stroke-linejoin="round"/>
</svg>
