<svg width="18" height="19" viewBox="0 0 18 19" fill="none" xmlns="http://www.w3.org/2000/svg">
<path d="M10.5202 14.3002H7.4802C7.35289 14.3002 7.2308 14.2496 7.14078 14.1596C7.05077 14.0696 7.0002 13.9475 7.0002 13.8202V11.9802C7.0002 11.8529 6.94962 11.7308 6.85961 11.6408C6.76959 11.5508 6.6475 11.5002 6.5202 11.5002H4.6802C4.55289 11.5002 4.4308 11.4496 4.34078 11.3596C4.25077 11.2696 4.2002 11.1475 4.2002 11.0202V7.9802C4.2002 7.85289 4.25077 7.7308 4.34078 7.64078C4.4308 7.55077 4.55289 7.5002 4.6802 7.5002H6.5202C6.6475 7.5002 6.76959 7.44962 6.85961 7.35961C6.94962 7.26959 7.0002 7.1475 7.0002 7.0202V5.1802C7.0002 5.05289 7.05077 4.9308 7.14078 4.84078C7.2308 4.75077 7.35289 4.7002 7.4802 4.7002H10.5202C10.6475 4.7002 10.7696 4.75077 10.8596 4.84078C10.9496 4.9308 11.0002 5.05289 11.0002 5.1802V7.0202C11.0002 7.1475 11.0508 7.26959 11.1408 7.35961C11.2308 7.44962 11.3529 7.5002 11.4802 7.5002H13.3202C13.4475 7.5002 13.5696 7.55077 13.6596 7.64078C13.7496 7.7308 13.8002 7.85289 13.8002 7.9802V11.0202C13.8002 11.1475 13.7496 11.2696 13.6596 11.3596C13.5696 11.4496 13.4475 11.5002 13.3202 11.5002H11.4802C11.3529 11.5002 11.2308 11.5508 11.1408 11.6408C11.0508 11.7308 11.0002 11.8529 11.0002 11.9802V13.8202C11.0002 13.9475 10.9496 14.0696 10.8596 14.1596C10.7696 14.2496 10.6475 14.3002 10.5202 14.3002Z" stroke="#696868" stroke-width="1.2"/>
<path d="M9 17.5C13.4184 17.5 17 13.9184 17 9.5C17 5.0816 13.4184 1.5 9 1.5C4.5816 1.5 1 5.0816 1 9.5C1 13.9184 4.5816 17.5 9 17.5Z" stroke="#696868" stroke-width="1.2" stroke-linecap="round" stroke-linejoin="round"/>
</svg>
