<svg width="17" height="17" viewBox="0 0 17 17" fill="none" xmlns="http://www.w3.org/2000/svg">
<path d="M1.52094 16.5C1.08737 16.5 0.725647 16.3551 0.435765 16.0652C0.145882 15.7753 0.000627451 15.4136 0 14.98V4.84353C0 4.41059 0.145255 4.04918 0.435765 3.7593C0.726275 3.46941 1.08769 3.32416 1.52 3.32353H5.64706V2.02C5.64706 1.58706 5.79231 1.22534 6.08282 0.934825C6.37333 0.644316 6.73506 0.499375 7.168 0.500002H9.77412C10.2071 0.500002 10.5688 0.644943 10.8593 0.934825C11.1498 1.22471 11.2947 1.58643 11.2941 2.02V3.32353H15.4212C15.8541 3.32353 16.2155 3.46879 16.5054 3.7593C16.7953 4.04981 16.9405 4.41153 16.9412 4.84447V14.98C16.9412 15.4129 16.7959 15.7747 16.5054 16.0652C16.2149 16.3557 15.8535 16.5006 15.4212 16.5H1.52094ZM1.52094 15.5588H15.4212C15.5655 15.5588 15.6982 15.4986 15.8193 15.3781C15.9404 15.2576 16.0006 15.1246 16 14.9791V4.84447C16 4.69953 15.9398 4.56651 15.8193 4.44541C15.6988 4.32432 15.5661 4.26408 15.4212 4.26471H1.52C1.37569 4.26471 1.24298 4.32494 1.12188 4.44541C1.00078 4.56589 0.940549 4.6989 0.941177 4.84447V14.98C0.941177 15.1243 1.00141 15.257 1.12188 15.3781C1.24235 15.4992 1.37506 15.5595 1.52 15.5588M6.58824 3.32353H10.3529V2.02C10.3529 1.87569 10.2927 1.74298 10.1722 1.62188C10.0518 1.50079 9.91906 1.44055 9.77412 1.44118H7.16706C7.02275 1.44118 6.89004 1.50141 6.76894 1.62188C6.64784 1.74235 6.58761 1.87506 6.58824 2.02V3.32353ZM8 10.3824V13.2059H8.94118V10.3824H11.7647V9.44118H8.94118V6.61765H8V9.44118H5.17647V10.3824H8Z" fill="#696868"/>
</svg>
