<svg width="43" height="43" viewBox="0 0 43 43" fill="none" xmlns="http://www.w3.org/2000/svg">
<path fill-rule="evenodd" clip-rule="evenodd" d="M13.8214 3.07143C13.8214 2.25683 13.4978 1.47561 12.9218 0.899601C12.3458 0.323596 11.5646 0 10.75 0C9.93541 0 9.15418 0.323596 8.57817 0.899601C8.00217 1.47561 7.67857 2.25683 7.67857 3.07143V6.14286H4.60714C3.38525 6.14286 2.21341 6.62825 1.3494 7.49226C0.485394 8.35627 0 9.52811 0 10.75L0 38.3929C0 39.6147 0.485394 40.7866 1.3494 41.6506C2.21341 42.5146 3.38525 43 4.60714 43H38.3929C39.6147 43 40.7866 42.5146 41.6506 41.6506C42.5146 40.7866 43 39.6147 43 38.3929V10.75C43 9.52811 42.5146 8.35627 41.6506 7.49226C40.7866 6.62825 39.6147 6.14286 38.3929 6.14286H35.3214V3.07143C35.3214 2.25683 34.9978 1.47561 34.4218 0.899601C33.8458 0.323596 33.0646 0 32.25 0C31.4354 0 30.6542 0.323596 30.0782 0.899601C29.5022 1.47561 29.1786 2.25683 29.1786 3.07143V6.14286H13.8214V3.07143ZM18.3364 16.6717C18.3364 16.0052 18.877 15.4677 19.5435 15.4677H23.4596C24.123 15.4677 24.6636 16.0052 24.6636 16.6717V21.4631H29.455C30.1215 21.4631 30.659 22.0037 30.659 22.6671V26.5832C30.6594 26.7416 30.6286 26.8985 30.5682 27.0449C30.5079 27.1913 30.4193 27.3244 30.3074 27.4366C30.1956 27.5487 30.0627 27.6376 29.9165 27.6983C29.7702 27.759 29.6134 27.7903 29.455 27.7903H24.6636V32.5817C24.6636 32.901 24.5367 33.2073 24.3109 33.4331C24.0851 33.6589 23.7789 33.7857 23.4596 33.7857H19.5404C19.2211 33.7857 18.9149 33.6589 18.6891 33.4331C18.4633 33.2073 18.3364 32.901 18.3364 32.5817V27.7903H13.545C13.3866 27.7903 13.2298 27.759 13.0835 27.6983C12.9373 27.6376 12.8044 27.5487 12.6926 27.4366C12.5807 27.3244 12.4921 27.1913 12.4318 27.0449C12.3714 26.8985 12.3406 26.7416 12.341 26.5832V22.6671C12.341 22.0037 12.8785 21.4631 13.545 21.4631H18.3364V16.6717Z" fill="white"/>
</svg>
