<svg width="38" height="43" viewBox="0 0 38 43" fill="none" xmlns="http://www.w3.org/2000/svg">
<path d="M18.8125 21.5C21.6636 21.5 24.3979 20.3674 26.4139 18.3514C28.4299 16.3354 29.5625 13.6011 29.5625 10.75C29.5625 7.89892 28.4299 5.16462 26.4139 3.1486C24.3979 1.13259 21.6636 0 18.8125 0C15.9614 0 13.2271 1.13259 11.2111 3.1486C9.19509 5.16462 8.0625 7.89892 8.0625 10.75C8.0625 13.6011 9.19509 16.3354 11.2111 18.3514C13.2271 20.3674 15.9614 21.5 18.8125 21.5ZM10.75 26.1359C4.53516 27.9584 0 33.7029 0 40.5057C0 41.883 1.11699 43 2.49434 43H35.1307C36.508 43 37.625 41.883 37.625 40.5057C37.625 33.7029 33.0898 27.9584 26.875 26.1359V30.4023C29.193 30.9986 30.9062 33.1066 30.9062 35.6094V38.9688C30.9062 39.7078 30.3016 40.3125 29.5625 40.3125H28.2188C27.4797 40.3125 26.875 39.7078 26.875 38.9688C26.875 38.2297 27.4797 37.625 28.2188 37.625V35.6094C28.2188 34.1229 27.0178 32.9219 25.5312 32.9219C24.0447 32.9219 22.8438 34.1229 22.8438 35.6094V37.625C23.5828 37.625 24.1875 38.2297 24.1875 38.9688C24.1875 39.7078 23.5828 40.3125 22.8438 40.3125H21.5C20.7609 40.3125 20.1562 39.7078 20.1562 38.9688V35.6094C20.1562 33.1066 21.8695 30.9986 24.1875 30.4023V25.6068C23.6836 25.5564 23.1713 25.5312 22.6506 25.5312H14.9744C14.4537 25.5312 13.9414 25.5564 13.4375 25.6068V31.0994C15.3775 31.6789 16.7969 33.4762 16.7969 35.6094C16.7969 38.2045 14.6889 40.3125 12.0938 40.3125C9.49863 40.3125 7.39062 38.2045 7.39062 35.6094C7.39062 33.4762 8.80996 31.6789 10.75 31.0994V26.1359ZM12.0938 37.625C12.6283 37.625 13.141 37.4126 13.519 37.0346C13.897 36.6566 14.1094 36.144 14.1094 35.6094C14.1094 35.0748 13.897 34.5621 13.519 34.1841C13.141 33.8061 12.6283 33.5938 12.0938 33.5938C11.5592 33.5938 11.0465 33.8061 10.6685 34.1841C10.2905 34.5621 10.0781 35.0748 10.0781 35.6094C10.0781 36.144 10.2905 36.6566 10.6685 37.0346C11.0465 37.4126 11.5592 37.625 12.0938 37.625Z" fill="white"/>
</svg>

