<svg width="6" height="28" viewBox="0 0 6 28" fill="none" xmlns="http://www.w3.org/2000/svg">
<path opacity="0.5" fill-rule="evenodd" clip-rule="evenodd" d="M1.48706 0.501484C1.88728 0.483985 2.27879 0.621804 2.57979 0.886148C2.8808 1.15049 3.06802 1.52092 3.10236 1.92005L5.11113 25.1886C5.14515 25.5351 5.10819 25.8849 5.00249 26.2166C4.89679 26.5484 4.72458 26.8551 4.49637 27.118C4.26816 27.381 3.98874 27.5947 3.67518 27.746C3.36162 27.8973 3.0205 27.9832 2.67265 27.9983C2.32481 28.0133 1.97754 27.9573 1.65206 27.8337C1.32658 27.7101 1.02972 27.5214 0.779602 27.2792C0.529489 27.037 0.331377 26.7463 0.197364 26.425C0.0633506 26.1036 -0.00374955 25.7583 0.000161654 25.4102V2.05258C0.000330877 1.65224 0.155078 1.26743 0.432117 0.97843C0.709156 0.68943 1.08709 0.518565 1.48706 0.501484Z" fill="white"/>
</svg>
