<svg width="31" height="42" viewBox="0 0 31 42" fill="none" xmlns="http://www.w3.org/2000/svg">
<path d="M29.3186 29.5419L30.7785 21.0927C30.8642 20.5975 30.8407 20.0895 30.7095 19.6043C30.5784 19.1192 30.3428 18.6685 30.0194 18.2839C29.6959 17.8992 29.2923 17.5899 28.8368 17.3776C28.3813 17.1652 27.8849 17.0549 27.3823 17.0544H16.6509C16.4007 17.0542 16.1535 16.9995 15.9265 16.8942C15.6996 16.7889 15.4982 16.6354 15.3365 16.4445C15.1747 16.2536 15.0564 16.0298 14.9898 15.7886C14.9232 15.5474 14.9099 15.2946 14.9507 15.0477L16.3237 6.67098C16.5466 5.31089 16.4832 3.91924 16.1373 2.5851C15.9892 2.0336 15.704 1.52852 15.3083 1.11684C14.9125 0.705157 14.4191 0.400257 13.8738 0.230499L13.5736 0.133167C12.8953 -0.0843671 12.1595 -0.0339782 11.5172 0.273988C10.8131 0.613614 10.2995 1.23281 10.109 1.96798L9.12322 5.766C8.80938 6.97462 8.35336 8.14178 7.76471 9.24303C6.90322 10.8521 5.57371 12.1423 4.19242 13.333L1.21034 15.9009C0.796921 16.2582 0.474036 16.7083 0.268137 17.2144C0.0622387 17.7205 -0.020814 18.2682 0.0257845 18.8126L1.70942 38.2645C1.7835 39.1244 2.1772 39.9254 2.81284 40.5092C3.44847 41.0931 4.27986 41.4175 5.14296 41.4185H14.7705C21.9793 41.4185 28.1319 36.3945 29.3165 29.5419" fill="white"/>
</svg>
