<svg width="51" height="43" viewBox="0 0 51 43" fill="none" xmlns="http://www.w3.org/2000/svg">
<path d="M2.71211 2.71211V0H29.8332V2.71211H2.71211ZM13.2487 34.9483H19.2967V28.168H26.077V22.1173H19.2967V15.337H13.2487V22.1173H6.46839V28.1653H13.2487V34.9483ZM0 42.77V7.51255H32.5453V42.77H0ZM42.77 26.2885C41.1861 25.5201 39.8861 24.3213 38.87 22.6922C37.852 21.065 37.3431 19.1764 37.3431 17.0266C37.3431 14.3199 38.0012 12.058 39.3175 10.2409C40.6338 8.42201 42.2357 7.51255 44.1233 7.51255C46.011 7.51255 47.6129 8.42201 48.9292 10.2409C50.2455 12.0599 50.9036 14.3145 50.9036 17.0049C50.9036 19.1674 50.3956 21.0632 49.3794 22.6922C48.3633 24.3213 47.0633 25.5201 45.4794 26.2885V42.77H42.7673L42.77 26.2885Z" fill="white"/>
</svg>
