<svg width="44" height="43" viewBox="0 0 44 43" fill="none" xmlns="http://www.w3.org/2000/svg">
<path d="M30.745 3.225C28.595 1.075 25.8 0 23.22 0C20.64 0 17.63 1.075 15.695 3.225L3.225 15.265C-1.075 19.565 -1.075 26.23 3.225 30.53C7.525 34.83 14.19 34.83 18.49 30.53L30.745 18.275C34.83 14.19 34.83 7.31 30.745 3.225ZM27.735 15.265L21.715 21.285L13.975 13.76L4.515 23.22C4.515 21.5 4.945 19.565 6.45 18.275L18.705 6.02C19.78 4.945 21.5 4.3 23.005 4.3C24.51 4.3 26.23 4.945 27.52 6.02C30.1 8.815 30.1 12.685 27.735 15.265ZM38.055 10.965C38.055 12.685 37.625 14.19 37.195 15.91C39.345 18.49 39.345 22.36 36.98 24.725L30.96 30.745L27.735 27.52L21.715 33.54C18.92 36.335 15.05 37.84 11.395 37.84C11.825 38.485 12.255 39.13 12.9 39.775C17.2 44.075 23.865 44.075 28.165 39.775L40.42 27.52C44.72 23.22 44.72 16.555 40.42 12.255C39.345 11.825 38.7 11.395 38.055 10.965Z" fill="white"/>
</svg>
